# xmcd
#
# Track frame offsets: 
#        150
#        9863
#        52082
#        82216
#        109142
#        165059
#        195011
#        236040
#        265965
#
# Disc length: 3879 seconds
#
# Revision: 0
# Processed by: cddbd v1.5.2PL0 Copyright (c) Steve Scherf et al.
# Submitted via: ExactAudioCopy v0.99pb5
#
DISCID=660f2509
DTITLE=Eric Clapton  - Flawless Disc 05 (MVR-359) 7-11-97
DYEAR=1900
DGENRE=
TTITLE0=Introduction
TTITLE1=Full House
TTITLE2=Marcus #1
TTITLE3=Ruthie
TTITLE4=Snakes
TTITLE5=Going Down Slow
TTITLE6=Peeper
TTITLE7=Suggestions
TTITLE8=Third Degree
EXTD=
EXTT0=
EXTT1=
EXTT2=
EXTT3=
EXTT4=
EXTT5=
EXTT6=
EXTT7=
EXTT8=
PLAYORDER=
